<?xml version="1.0" encoding="iso-8859-1"?>
<!-- Uploaded to: SVG Repo, www.svgrepo.com, Generator: SVG Repo Mixer Tools -->
<!DOCTYPE svg PUBLIC "-//W3C//DTD SVG 1.1//EN" "http://www.w3.org/Graphics/SVG/1.1/DTD/svg11.dtd">
<svg fill="#000000" height="800px" width="800px" version="1.1" id="Capa_1" xmlns="http://www.w3.org/2000/svg" xmlns:xlink="http://www.w3.org/1999/xlink" 
	 viewBox="0 0 46 46" xml:space="preserve">
<g>
	<circle cx="27.167" cy="22.271" r="1"/>
	<circle cx="18.352" cy="21.833" r="1"/>
	<path d="M39.448,15.345c0.969-3.027,0.913-6.403-0.224-9.531c-0.355-0.976-1.077-1.771-1.992-2.267C35.747,0.781,27.864,0,23,0
		C18.135,0,10.251,0.781,8.767,3.548c-0.914,0.496-1.636,1.29-1.991,2.266c-1.138,3.128-1.193,6.505-0.224,9.532
		c0.039,0.356,0.154,0.696,0.37,1.011c0.108,0.265,0.208,0.533,0.333,0.79c2.736,5.623,8.107,9.269,14.245,9.783v12.081
		c-3.2,0.071-11,0.545-11,3.488c0,3.331,9.996,3.5,12,3.5s12-0.169,12-3.5c0-2.943-7.8-3.417-11-3.488V26.983
		c6.551-0.182,12.361-3.909,15.245-9.835c0.125-0.257,0.225-0.525,0.333-0.79C39.294,16.042,39.409,15.702,39.448,15.345z
		 M35.48,4.47l0.01,0.043c-0.01,0.028-0.033,0.058-0.051,0.087c-0.017,0.026-0.027,0.051-0.051,0.079
		c-0.027,0.031-0.068,0.064-0.104,0.096c-0.033,0.029-0.06,0.058-0.1,0.088c-0.043,0.032-0.099,0.066-0.151,0.099
		c-0.049,0.032-0.093,0.064-0.15,0.096c-0.057,0.032-0.127,0.066-0.192,0.099c-0.068,0.035-0.13,0.069-0.205,0.104
		c-0.069,0.032-0.151,0.064-0.226,0.096c-0.087,0.037-0.168,0.073-0.263,0.11c-0.083,0.032-0.178,0.064-0.267,0.096
		c-0.103,0.037-0.202,0.074-0.314,0.111c-0.095,0.031-0.202,0.062-0.304,0.093c-0.121,0.037-0.237,0.074-0.367,0.111
		c-0.107,0.03-0.227,0.059-0.34,0.089c-0.138,0.036-0.271,0.073-0.418,0.108c-0.123,0.03-0.257,0.057-0.386,0.086
		c-0.151,0.034-0.298,0.069-0.457,0.101c-0.136,0.028-0.283,0.053-0.425,0.08c-0.167,0.031-0.328,0.064-0.503,0.094
		c-0.156,0.027-0.325,0.051-0.488,0.076c-0.173,0.027-0.34,0.055-0.519,0.08c-0.179,0.025-0.371,0.047-0.557,0.07
		c-0.178,0.022-0.349,0.046-0.533,0.066c-0.203,0.022-0.42,0.041-0.631,0.061c-0.178,0.017-0.351,0.036-0.534,0.051
		c-0.236,0.019-0.485,0.034-0.73,0.05c-0.172,0.011-0.338,0.025-0.515,0.035c-0.299,0.016-0.612,0.026-0.923,0.037
		c-0.133,0.005-0.259,0.012-0.394,0.016C23.94,6.994,23.476,7,23,7c-0.48,0-0.947-0.006-1.403-0.019
		c-1.02-0.028-1.971-0.087-2.864-0.167c-0.702-0.063-1.37-0.137-1.989-0.224c-0.031-0.004-0.059-0.01-0.09-0.014
		c-0.668-0.096-1.289-0.204-1.854-0.32c-2.664-0.548-4.172-1.276-4.286-1.74l0.016-0.058C10.919,3.591,15.485,2,23,2
		C30.549,2,35.127,3.606,35.48,4.47z M8.656,6.498C8.74,6.267,8.863,6.052,9.015,5.862c0.074,0.09,0.17,0.174,0.258,0.259
		c0.048,0.046,0.088,0.095,0.14,0.14c0.354,0.308,0.8,0.584,1.318,0.831C10.81,7.13,10.896,7.164,10.977,7.2
		c0.189,0.084,0.382,0.165,0.586,0.242c0.104,0.039,0.212,0.076,0.32,0.113c0.198,0.068,0.399,0.134,0.608,0.197
		c0.117,0.035,0.234,0.069,0.354,0.102c0.216,0.06,0.438,0.117,0.663,0.171c0.119,0.029,0.236,0.058,0.358,0.085
		c0.251,0.056,0.508,0.109,0.768,0.159c0.1,0.019,0.198,0.041,0.299,0.059c0.731,0.134,1.486,0.244,2.246,0.334
		c0.115,0.014,0.23,0.025,0.345,0.038c0.265,0.029,0.529,0.057,0.794,0.082c0.139,0.013,0.277,0.024,0.416,0.036
		c0.24,0.02,0.479,0.039,0.717,0.055c0.144,0.01,0.287,0.02,0.43,0.028c0.233,0.014,0.463,0.026,0.692,0.037
		c0.135,0.006,0.27,0.013,0.404,0.019c0.245,0.01,0.483,0.017,0.72,0.023c0.107,0.003,0.217,0.007,0.322,0.009
		C22.356,8.996,22.685,9,23,9s0.644-0.004,0.981-0.011c0.105-0.002,0.215-0.006,0.322-0.009c0.237-0.006,0.475-0.013,0.72-0.023
		c0.133-0.005,0.268-0.012,0.404-0.019c0.229-0.011,0.458-0.023,0.692-0.037c0.143-0.009,0.286-0.018,0.43-0.028
		c0.238-0.016,0.476-0.035,0.717-0.055c0.139-0.012,0.276-0.023,0.416-0.036c0.263-0.024,0.525-0.052,0.788-0.081
		c0.118-0.013,0.235-0.025,0.353-0.038c0.759-0.09,1.511-0.2,2.24-0.333c0.108-0.02,0.212-0.042,0.319-0.063
		c0.252-0.049,0.502-0.1,0.746-0.155c0.127-0.029,0.25-0.059,0.375-0.089c0.219-0.053,0.434-0.108,0.644-0.166
		c0.126-0.035,0.248-0.07,0.37-0.107c0.202-0.061,0.397-0.125,0.588-0.19c0.114-0.039,0.229-0.078,0.339-0.12
		c0.195-0.073,0.378-0.151,0.559-0.231c0.09-0.04,0.185-0.077,0.271-0.118c0.239-0.114,0.464-0.235,0.67-0.362
		c0.016-0.01,0.036-0.019,0.052-0.028c0.218-0.137,0.412-0.283,0.588-0.435c0.056-0.049,0.1-0.102,0.152-0.152
		c0.085-0.083,0.178-0.163,0.249-0.25c0.153,0.19,0.276,0.405,0.36,0.637c0.756,2.08,0.965,4.283,0.647,6.374
		c-2.79-1.88-9.058-2.758-14.991-2.758c-5.933,0-12.201,0.877-14.991,2.758C7.691,10.781,7.899,8.578,8.656,6.498z M37.278,15.485
		C36.276,16.49,31.452,18.143,23,18.143c-8.453,0-13.276-1.653-14.278-2.658c-0.059-0.148-0.123-0.294-0.176-0.445
		c0.289-0.942,5.188-2.926,14.454-2.926c9.265,0,14.165,1.983,14.454,2.925C37.401,15.19,37.337,15.336,37.278,15.485z M32.343,42.5
		C31.452,43.093,28.089,44,22.5,44s-8.952-0.907-9.843-1.5c0.837-0.557,3.853-1.39,8.843-1.49V42c0,0.553,0.448,1,1,1s1-0.447,1-1
		v-0.99C28.49,41.11,31.506,41.943,32.343,42.5z M23,25c-5.107,0-9.741-2.442-12.619-6.502C13.607,19.611,18.4,20.143,23,20.143
		c4.6,0,9.393-0.531,12.62-1.645C32.741,22.558,28.106,25,23,25z"/>
</g>
</svg>