<?xml version="1.0" encoding="iso-8859-1"?>
<!-- Uploaded to: SVG Repo, www.svgrepo.com, Generator: SVG Repo Mixer Tools -->
<!DOCTYPE svg PUBLIC "-//W3C//DTD SVG 1.1//EN" "http://www.w3.org/Graphics/SVG/1.1/DTD/svg11.dtd">
<svg fill="#000000" height="800px" width="800px" version="1.1" id="Capa_1" xmlns="http://www.w3.org/2000/svg" xmlns:xlink="http://www.w3.org/1999/xlink" 
	 viewBox="0 0 52.03 52.03" xml:space="preserve">
<g>
	<path d="M49.023,41.669l-1.575-0.716c0.334-0.457,0.534-0.75,0.547-0.77l0.062-0.104c2.251-4.371,1.64-8.779-1.676-12.094
		l-0.616-0.616l-0.002-0.002l-6.362-6.362l0,0L25.875,7.48c-3.988-3.988-10.022-4.708-14.754-2.168l-0.539-3.769
		c-0.11-0.774-0.68-1.367-1.449-1.51C8.359-0.115,7.619,0.241,7.238,0.926l-2.199,3.96L3.082,5.538
		C2.377,5.774,1.897,6.404,1.859,7.146C1.82,7.888,2.232,8.566,2.908,8.873l3.174,1.442c-2.596,4.745-1.897,10.828,2.116,14.842
		l19.856,19.855l0,0l0.65,0.65c1.999,1.999,4.39,3.015,6.93,3.015c1.31,0,2.66-0.274,4.017-0.819l0.355,2.483
		c0.121,0.849,0.743,1.497,1.586,1.653c0.125,0.023,0.249,0.035,0.372,0.035c0.704,0,1.348-0.373,1.703-1.013l2.698-4.876
		l2.465-0.821c0.771-0.257,1.298-0.947,1.341-1.76C50.214,42.747,49.763,42.005,49.023,41.669z M25.55,9.983l4.493,4.494
		c-5.622,0.718-13.488,4.434-14.806,14.893l-4.519-4.518C11.438,11.205,23.183,10.07,25.55,9.983z M31.917,16.349l4.496,4.497
		c-5.608,0.724-13.49,4.43-14.81,14.887l-4.518-4.518C17.804,17.549,29.572,16.44,31.917,16.349z M38.278,22.712l4.492,4.492
		c-5.622,0.719-13.485,4.434-14.805,14.893l-4.518-4.518C24.166,23.916,35.927,22.796,38.278,22.712z M7.192,8.624L4.212,7.27
		l1.532-0.511c0.427-0.142,0.782-0.436,1.003-0.831l1.941-3.496l0.585,4.097c-0.122,0.096-0.239,0.2-0.358,0.302
		C8.661,7.044,8.418,7.259,8.198,7.48L8.197,7.481C8.196,7.482,8.195,7.483,8.193,7.484c-0.351,0.352-0.67,0.723-0.971,1.104
		C7.213,8.601,7.202,8.611,7.192,8.624z M8.208,10.642l0.142-0.21C8.541,10.15,8.742,9.88,8.952,9.624
		C8.996,9.571,9.045,9.523,9.09,9.472c0.17-0.199,0.342-0.397,0.523-0.578C9.649,8.858,9.693,8.822,9.73,8.786
		c0.167-0.162,0.338-0.315,0.513-0.463c0.212-0.176,0.439-0.351,0.688-0.529l0.408-0.292c1.727-1.116,3.711-1.678,5.698-1.678
		c2.327,0,4.654,0.77,6.565,2.304c-5.589,0.748-13.379,4.453-14.72,14.805C6.009,19.395,5.787,14.408,8.208,10.642z M30.119,44.249
		l-0.307-0.307c0.719-13.644,12.461-14.779,14.83-14.867l0.326,0.326c2.685,2.684,3.159,6.13,1.341,9.709
		c-0.089,0.128-0.348,0.499-0.721,0.998l-2.433-1.105l-0.473,0.699c-0.472,0.698-0.996,1.337-1.559,1.899
		c-0.461,0.461-0.993,0.905-1.627,1.358l-0.495,0.354l0.357,2.5C37.136,46.816,33.461,47.592,30.119,44.249z M45.733,44.245
		c-0.468,0.155-0.856,0.479-1.096,0.909l-2.65,4.905l-0.835-5.838c0.517-0.396,0.973-0.794,1.386-1.207
		c0.231-0.231,0.456-0.473,0.675-0.724c0.217-0.25,0.428-0.51,0.632-0.779l2.359,1.073l0.024-0.031l1.971,0.869L45.733,44.245z"/>
	<path d="M8.886,15.984c0.198,0.225,0.475,0.34,0.752,0.34c0.234,0,0.47-0.082,0.66-0.248c0.415-0.364,0.456-0.996,0.092-1.412
		c-0.16-0.182-0.299-0.332-0.422-0.465c-0.442-0.48-0.562-0.609-0.805-1.301c-0.183-0.522-0.755-0.796-1.274-0.612
		c-0.521,0.183-0.796,0.754-0.612,1.274c0.362,1.033,0.668,1.395,1.222,1.994C8.612,15.677,8.74,15.816,8.886,15.984z"/>
	<path d="M12.743,18.388c-0.391,0.391-0.391,1.023,0,1.414l2.48,2.481c0.195,0.195,0.451,0.293,0.707,0.293
		c0.256,0,0.512-0.098,0.707-0.293c0.391-0.391,0.391-1.023,0-1.414l-2.48-2.481C13.766,17.997,13.133,17.997,12.743,18.388z"/>
	<path d="M21.636,28.696c0.195,0.195,0.451,0.293,0.707,0.293s0.512-0.098,0.707-0.293c0.391-0.391,0.391-1.023,0-1.414
		l-2.583-2.584c-0.391-0.391-1.023-0.391-1.414,0s-0.391,1.023,0,1.414L21.636,28.696z"/>
	<path d="M28.174,35.234c0.195,0.195,0.451,0.293,0.707,0.293s0.512-0.098,0.707-0.293c0.391-0.391,0.391-1.023,0-1.414
		l-2.451-2.451c-0.391-0.391-1.023-0.391-1.414,0s-0.391,1.023,0,1.414L28.174,35.234z"/>
	<path d="M33.492,37.865c-0.394-0.386-1.026-0.378-1.414,0.016c-0.386,0.395-0.379,1.028,0.016,1.414
		c1.672,1.636,3.229,2.938,4.76,3.979c0.172,0.117,0.368,0.173,0.562,0.173c0.32,0,0.634-0.153,0.828-0.438
		c0.311-0.456,0.192-1.078-0.265-1.39C36.546,40.647,35.079,39.418,33.492,37.865z"/>
	<path d="M13.063,9.171c0.689,0.29,0.884,0.487,1.458,1.072l0.177,0.18c0.195,0.197,0.453,0.297,0.711,0.297
		c0.254,0,0.508-0.096,0.703-0.289c0.393-0.388,0.396-1.021,0.008-1.414l-0.172-0.175c-0.632-0.644-1.05-1.069-2.111-1.515
		c-0.506-0.216-1.096,0.024-1.309,0.535C12.314,8.371,12.553,8.957,13.063,9.171z"/>
	<path d="M20.907,16.676c0.195,0.195,0.451,0.293,0.707,0.293s0.512-0.098,0.707-0.293c0.391-0.391,0.391-1.023,0-1.414l-2.739-2.74
		c-0.391-0.391-1.023-0.391-1.414,0s-0.391,1.023,0,1.414L20.907,16.676z"/>
	<path d="M27.143,22.911c0.195,0.195,0.451,0.293,0.707,0.293s0.512-0.098,0.707-0.293c0.391-0.391,0.391-1.023,0-1.414
		l-2.471-2.471c-0.391-0.391-1.023-0.391-1.414,0s-0.391,1.023,0,1.414L27.143,22.911z"/>
	<path d="M33.5,29.27c0.195,0.195,0.451,0.293,0.707,0.293s0.512-0.098,0.707-0.293c0.391-0.391,0.391-1.023,0-1.414l-2.469-2.469
		c-0.391-0.391-1.023-0.391-1.414,0s-0.391,1.023,0,1.414L33.5,29.27z"/>
	<path d="M41.478,37.988c0.189,0.306,0.517,0.474,0.852,0.474c0.18,0,0.361-0.048,0.525-0.149c0.47-0.291,0.614-0.907,0.324-1.377
		c-1.188-1.918-2.716-3.566-4.191-5.061c-0.39-0.394-1.022-0.397-1.414-0.01c-0.394,0.388-0.397,1.021-0.01,1.414
		C38.957,34.692,40.395,36.238,41.478,37.988z"/>
</g>
</svg>