<?xml version="1.0" encoding="iso-8859-1"?>
<!-- Uploaded to: SVG Repo, www.svgrepo.com, Generator: SVG Repo Mixer Tools -->
<!DOCTYPE svg PUBLIC "-//W3C//DTD SVG 1.1//EN" "http://www.w3.org/Graphics/SVG/1.1/DTD/svg11.dtd">
<svg fill="#000000" height="800px" width="800px" version="1.1" id="Capa_1" xmlns="http://www.w3.org/2000/svg" xmlns:xlink="http://www.w3.org/1999/xlink" 
	 viewBox="0 0 56 56" xml:space="preserve">
<path d="M39.734,36.915l-3.96-30.098c-0.388-2.943-2.399-5.335-5.055-6.325c-0.024-0.01-0.048-0.016-0.073-0.024
	C29.816,0.168,28.925,0,28,0c-3.92,0-7.263,2.931-7.774,6.817l-3.96,30.098c-0.102,0.779,0.136,1.564,0.654,2.155
	S18.185,40,18.971,40h4.271v13c0,1.654,1.346,3,3,3h3c1.654,0,3-1.346,3-3V40h4.788c0.786,0,1.533-0.339,2.051-0.93
	S39.837,37.694,39.734,36.915z M18.79,37.976c-0.182-0.046-0.304-0.153-0.367-0.224c-0.081-0.093-0.212-0.291-0.175-0.575
	l0.704-5.353l15.991-15.991l0.696,5.292L18.79,37.976z M20.289,21.669L33.918,8.041l0.696,5.293L19.381,28.567L20.289,21.669z
	 M33.417,5.714l-12.7,12.699l0.908-6.897l8.909-8.909C31.839,3.243,32.875,4.342,33.417,5.714z M28,2
	c0.097,0,0.19,0.022,0.286,0.027l-6.233,6.233l0.155-1.18C22.59,4.184,25.08,2,28,2z M21.594,38l14.375-14.375l0.696,5.289
	L27.459,38h-4.217H21.594z M27.852,40c0.005,0,0.01,0.003,0.015,0.003c0.005,0,0.01-0.003,0.015-0.003h0.739
	c-0.947,0.724-1.565,1.816-1.565,3.053c0,1.85,1.362,3.395,3.186,3.821v4.148c-1.476-0.361-2.269-0.674-2.346-0.929
	c0-0.001-0.009-0.068,0.074-0.235c0.707-1.421,0.427-2.384,0.068-2.941c-0.636-0.987-1.879-1.316-2.796-1.426V40H27.852z
	 M30.242,41.331v3.443c-0.701-0.325-1.186-0.971-1.186-1.721S29.541,41.656,30.242,41.331z M29.242,54h-3c-0.551,0-1-0.448-1-1
	v-5.481c0.5,0.089,0.966,0.249,1.115,0.48c0.155,0.24-0.073,0.757-0.177,0.968c-0.434,0.871-0.291,1.555-0.095,1.975
	c0.601,1.286,2.393,1.715,3.833,2.061c0.11,0.026,0.207,0.05,0.309,0.075C30.185,53.591,29.766,54,29.242,54z M37.577,37.752
	C37.496,37.845,37.317,38,37.03,38h-4.788h-1.935l6.685-6.598l0.76,5.775C37.789,37.461,37.658,37.659,37.577,37.752z"/>
</svg>